<svg xmlns="http://www.w3.org/2000/svg" viewBox="0 0 242 347"><defs><style>.cls-1{opacity:0.25;}.cls-2{fill:none;stroke:#313133;stroke-miterlimit:10;}</style></defs><g id="Capa_2" data-name="Capa 2"><g id="Capa_3" data-name="Capa 3"><g class="cls-1"><rect class="cls-2" x="0.5" y="0.5" width="34" height="34"/><rect class="cls-2" x="34.5" y="0.5" width="35" height="34"/><rect class="cls-2" x="69.5" y="0.5" width="34" height="34"/><rect class="cls-2" x="103.5" y="0.5" width="35" height="34"/><rect class="cls-2" x="138.5" y="0.5" width="34" height="34"/><rect class="cls-2" x="172.5" y="0.5" width="35" height="34"/><rect class="cls-2" x="207.5" y="0.5" width="34" height="34"/><rect class="cls-2" x="0.5" y="34.5" width="34" height="35"/><rect class="cls-2" x="34.5" y="34.5" width="35" height="35"/><rect class="cls-2" x="69.5" y="34.5" width="34" height="35"/><rect class="cls-2" x="103.5" y="34.5" width="35" height="35"/><rect class="cls-2" x="138.5" y="34.5" width="34" height="35"/><rect class="cls-2" x="172.5" y="34.5" width="35" height="35"/><rect class="cls-2" x="207.5" y="34.5" width="34" height="35"/><rect class="cls-2" x="0.5" y="69.5" width="34" height="34"/><rect class="cls-2" x="34.5" y="69.5" width="35" height="34"/><rect class="cls-2" x="69.5" y="69.5" width="34" height="34"/><rect class="cls-2" x="103.5" y="69.5" width="35" height="34"/><rect class="cls-2" x="138.5" y="69.5" width="34" height="34"/><rect class="cls-2" x="172.5" y="69.5" width="35" height="34"/><rect class="cls-2" x="207.5" y="69.5" width="34" height="34"/><rect class="cls-2" x="0.5" y="103.5" width="34" height="35"/><rect class="cls-2" x="34.5" y="103.5" width="35" height="35"/><rect class="cls-2" x="69.5" y="103.5" width="34" height="35"/><rect class="cls-2" x="103.5" y="103.5" width="35" height="35"/><rect class="cls-2" x="138.5" y="103.5" width="34" height="35"/><rect class="cls-2" x="172.5" y="103.5" width="35" height="35"/><rect class="cls-2" x="207.5" y="103.5" width="34" height="35"/><rect class="cls-2" x="0.5" y="138.5" width="34" height="35"/><rect class="cls-2" x="34.5" y="138.5" width="35" height="35"/><rect class="cls-2" x="69.5" y="138.5" width="34" height="35"/><rect class="cls-2" x="103.5" y="138.5" width="35" height="35"/><rect class="cls-2" x="138.5" y="138.5" width="34" height="35"/><rect class="cls-2" x="172.5" y="138.5" width="35" height="35"/><rect class="cls-2" x="207.5" y="138.5" width="34" height="35"/><rect class="cls-2" x="0.5" y="173.5" width="34" height="35"/><rect class="cls-2" x="34.5" y="173.5" width="35" height="35"/><rect class="cls-2" x="69.5" y="173.5" width="34" height="35"/><rect class="cls-2" x="103.5" y="173.5" width="35" height="35"/><rect class="cls-2" x="138.5" y="173.5" width="34" height="35"/><rect class="cls-2" x="172.5" y="173.5" width="35" height="35"/><rect class="cls-2" x="207.5" y="173.5" width="34" height="35"/><rect class="cls-2" x="0.5" y="208.5" width="34" height="34"/><rect class="cls-2" x="34.5" y="208.5" width="35" height="34"/><rect class="cls-2" x="69.5" y="208.5" width="34" height="34"/><rect class="cls-2" x="103.5" y="208.5" width="35" height="34"/><rect class="cls-2" x="138.5" y="208.5" width="34" height="34"/><rect class="cls-2" x="172.5" y="208.5" width="35" height="34"/><rect class="cls-2" x="207.5" y="208.5" width="34" height="34"/><rect class="cls-2" x="0.5" y="242.5" width="34" height="35"/><rect class="cls-2" x="34.5" y="242.5" width="35" height="35"/><rect class="cls-2" x="69.5" y="242.5" width="34" height="35"/><rect class="cls-2" x="103.5" y="242.5" width="35" height="35"/><rect class="cls-2" x="138.5" y="242.5" width="34" height="35"/><rect class="cls-2" x="172.5" y="242.5" width="35" height="35"/><rect class="cls-2" x="207.5" y="242.5" width="34" height="35"/><rect class="cls-2" x="0.5" y="277.5" width="34" height="34"/><rect class="cls-2" x="34.5" y="277.5" width="35" height="34"/><rect class="cls-2" x="69.5" y="277.5" width="34" height="34"/><rect class="cls-2" x="103.5" y="277.5" width="35" height="34"/><rect class="cls-2" x="138.5" y="277.5" width="34" height="34"/><rect class="cls-2" x="172.5" y="277.5" width="35" height="34"/><rect class="cls-2" x="207.5" y="277.5" width="34" height="34"/><rect class="cls-2" x="0.5" y="311.5" width="34" height="35"/><rect class="cls-2" x="34.5" y="311.5" width="35" height="35"/><rect class="cls-2" x="69.5" y="311.5" width="34" height="35"/><rect class="cls-2" x="103.5" y="311.5" width="35" height="35"/><rect class="cls-2" x="138.5" y="311.5" width="34" height="35"/><rect class="cls-2" x="172.5" y="311.5" width="35" height="35"/><rect class="cls-2" x="207.5" y="311.5" width="34" height="35"/></g></g></g></svg>