<svg xmlns="http://www.w3.org/2000/svg" viewBox="0 0 239.39 268.33"><defs><style>.imago-cls-1{fill:none;stroke:#313133;stroke-linecap:round;stroke-linejoin:round;stroke-width:8.28px;}</style></defs><g id="Capa_2" data-name="Capa 2"><g id="Capa_3" data-name="Capa 3"><path class="imago-cls-1" d="M4.14,200V77.87a19.12,19.12,0,0,1,9.67-16.51L111,6.65a19.14,19.14,0,0,1,19.14.11l95.69,56.05a19.14,19.14,0,0,1,9.47,16.63V190.63a19.12,19.12,0,0,1-9.67,16.51l-97.05,54.55a19.12,19.12,0,0,1-19.17-.15L60.53,232.77a25.18,25.18,0,0,1-12.4-21.93l1-104.87a19.31,19.31,0,0,1,11.1-17.3l52-29.48a14.67,14.67,0,0,1,14.68.14l54.72,32.32a12.37,12.37,0,0,1,6.07,10.94l-1.4,60.83a17.05,17.05,0,0,1-8.62,14.43l-56,31.89a5.15,5.15,0,0,1-5,.06l-13.77-7.42a5.19,5.19,0,0,1-2.71-4.53l0-16.74a5.15,5.15,0,0,1,2.68-4.54l13.28-7.27a5.16,5.16,0,0,1,4.93,0l71,38.23"/></g></g></svg>