<svg xmlns="http://www.w3.org/2000/svg" viewBox="0 0 252 252"><defs><style>.cls-1{fill:#e7e7e7;}.cls-2{fill:#fff;}.cls-3{fill:#eb9f00;}</style></defs><g id="Capa_2" data-name="Capa 2"><g id="Capa_3" data-name="Capa 3"><rect class="cls-1" x="7" y="7" width="238" height="238"/><path class="cls-2" d="M238,14V238H14V14H238M252,0H0V252H252V0Z"/><path class="cls-3" d="M125,173.88a11.84,11.84,0,0,1-6-1.64L94.13,157.62a14.94,14.94,0,0,1-7.33-13l.5-53.3a12,12,0,0,1,6.78-10.65l26.38-14.94a9.59,9.59,0,0,1,9.57.08l27.82,16.44A8.39,8.39,0,0,1,162,89.67l-.71,30.93a10.84,10.84,0,0,1-5.45,9.11L149,133.57l14,7.54a2.11,2.11,0,0,1-2,3.71L144.72,136l-17.39,9.89a4.72,4.72,0,0,1-4.58.06l-7-3.77a4.74,4.74,0,0,1-2.48-4.15l0-8.51a4.73,4.73,0,0,1,2.46-4.16l6.75-3.7a4.72,4.72,0,0,1,4.51,0l17.71,9.54,9.06-5.16a6.61,6.61,0,0,0,3.32-5.55l.71-30.92a4.2,4.2,0,0,0-2-3.7L127.89,69.45a5.37,5.37,0,0,0-5.36,0l-26.44,15-.14.07a7.78,7.78,0,0,0-4.44,6.92l-.5,53.3A10.71,10.71,0,0,0,96.27,154l24.82,14.62a7.61,7.61,0,0,0,7.64.06l49.34-27.73a7.63,7.63,0,0,0,3.84-6.57V77.86a7.66,7.66,0,0,0-3.77-6.64L129.5,42.73a7.63,7.63,0,0,0-7.62,0L72.49,70.5a7.66,7.66,0,0,0-3.85,6.57v62.05a2.11,2.11,0,1,1-4.21,0V77.06a11.87,11.87,0,0,1,6-10.22L119.8,39a11.85,11.85,0,0,1,11.82.08l48.65,28.49a11.85,11.85,0,0,1,5.85,10.28v56.51a11.83,11.83,0,0,1-6,10.22L130.8,172.34A11.86,11.86,0,0,1,125,173.88Zm-.24-48.56a.57.57,0,0,0-.25.06l-6.75,3.7a.52.52,0,0,0-.27.45l0,8.52a.5.5,0,0,0,.27.45l7,3.77a.52.52,0,0,0,.5,0l15.1-8.59L125,125.38A.54.54,0,0,0,124.72,125.32Z"/><path class="cls-3" d="M63.83,190.2l.46-.46h4a34,34,0,0,1,4.67.16,4.51,4.51,0,0,1,2.52,1.6,4.37,4.37,0,0,1-.3,5.71l-.46.5a7.3,7.3,0,0,1,3.12,2,8.66,8.66,0,0,1,1.93,3.36l.31.91,0,4.52v2.38a8.31,8.31,0,0,1-.16,2.37.66.66,0,0,1-.5.19h-.15c-.25,0-.4-.21-.44-.63s-.08-1.76-.13-4-.05-3.56-.08-4a5,5,0,0,0-.23-1.29,6.89,6.89,0,0,0-4.59-4.63,26.4,26.4,0,0,0-4.6-.27l-4,0v7.27c0,3.57,0,5.69-.06,6.34s-.07,1-.17,1.09a.74.74,0,0,1-1-.08,4.07,4.07,0,0,1-.18-1.63q0-1.47,0-10ZM73,191.39a21.88,21.88,0,0,0-4.1-.19h-3.6v6h3.6a37.68,37.68,0,0,0,3.83-.11,2.58,2.58,0,0,0,1.34-.77,2.93,2.93,0,0,0,1-2.11,2.85,2.85,0,0,0-.64-1.66A3,3,0,0,0,73,191.39Z"/><path class="cls-3" d="M84.35,189.9a.79.79,0,0,1,.88.07c.1.08.16.48.17,1.21s0,3.12.06,7.18l.07,8.23.27.73a7.4,7.4,0,0,0,1.76,2.79,6.34,6.34,0,0,0,4.64,1.95,6.2,6.2,0,0,0,4-1.39,7.45,7.45,0,0,0,2.41-3.47l.23-.73,0-8.15q0-8,.15-8.23s0-.05.08-.08a.75.75,0,0,1,.49-.15.78.78,0,0,1,.5.15,24.64,24.64,0,0,1,.15,4.25v4.33l0,8.38-.31.81a8.29,8.29,0,0,1-5.51,5.36,7,7,0,0,1-2.22.3,7.1,7.1,0,0,1-2.26-.3,8.51,8.51,0,0,1-4-2.66,8.16,8.16,0,0,1-1.8-4.43q-.12-.8-.12-8.27c0-3.72,0-5.94,0-6.66S84.17,190,84.35,189.9Z"/><path class="cls-3" d="M104.64,189.9h.08l.19,0a1,1,0,0,1,.26,0H106l1.34,0,1.61,0a31.29,31.29,0,0,1,4.63.19,4.63,4.63,0,0,1,2.68,2.64,3.92,3.92,0,0,1,.42,1.57,4.26,4.26,0,0,1-1.26,3.06c-.36.36-.48.54-.35.54a4.83,4.83,0,0,1,1,.42,7.85,7.85,0,0,1,4.06,5,8.13,8.13,0,0,1,.27,2.22,7,7,0,0,1-.27,2.22,8.25,8.25,0,0,1-4.18,5,6.69,6.69,0,0,1-2.22.77c-.63.08-2.19.13-4.67.15l-2.16,0-1.32,0-.44,0-.29,0a.39.39,0,0,1-.21-.06l-.13-.07a.68.68,0,0,1-.16-.12l-.19-.17V201.76c0-7.65.07-11.53.19-11.63A1.25,1.25,0,0,1,104.64,189.9Zm8.77,1.68a20.32,20.32,0,0,0-4.22-.27l-3.71,0v6.09h3.68l3.67,0,.58-.26a2.86,2.86,0,0,0,1.8-2.76A2.78,2.78,0,0,0,113.41,191.58Zm.57,7.47a22.71,22.71,0,0,0-4.63-.31l-3.87,0v13.52l4,0a28.89,28.89,0,0,0,4.64-.23,6.78,6.78,0,0,0,3.33-2.26,6.64,6.64,0,0,0,1.53-4.17,6.4,6.4,0,0,0-2-4.67A6.89,6.89,0,0,0,114,199.05Z"/><path class="cls-3" d="M124.2,190.2l.46-.46h4a33.92,33.92,0,0,1,4.67.16,4.5,4.5,0,0,1,2.53,1.6,4.31,4.31,0,0,1,.92,2.68,4.18,4.18,0,0,1-1.23,3l-.46.5a7.28,7.28,0,0,1,3.13,2,8.66,8.66,0,0,1,1.93,3.36l.3.91,0,4.52v2.38a8.55,8.55,0,0,1-.15,2.37.66.66,0,0,1-.5.19h-.15c-.26,0-.4-.21-.44-.63s-.08-1.76-.13-4-.06-3.56-.08-4a5.45,5.45,0,0,0-.23-1.29,6.93,6.93,0,0,0-4.6-4.63,26.25,26.25,0,0,0-4.59-.27l-4,0v7.27c0,3.57,0,5.69-.06,6.34s-.07,1-.17,1.09a.75.75,0,0,1-1-.08,4.18,4.18,0,0,1-.17-1.63q0-1.47,0-10Zm9.15,1.19a21.65,21.65,0,0,0-4.09-.19h-3.6v6h3.6a37.68,37.68,0,0,0,3.83-.11,2.62,2.62,0,0,0,1.34-.77,3,3,0,0,0,.95-2.11,2.83,2.83,0,0,0-.63-1.66A3,3,0,0,0,133.35,191.39Z"/><path class="cls-3" d="M144.57,190.32a.76.76,0,0,1,.48-.18.89.89,0,0,1,.55.14,55.8,55.8,0,0,1,.2,6.74v4.78c0,1.23,0,2.66,0,4.31s0,2.7,0,3.16a30.3,30.3,0,0,1-.11,4.13c-.08.21-.29.31-.65.31a.7.7,0,0,1-.5-.15,4.39,4.39,0,0,1-.17-1.67q0-1.51,0-9.93Q144.38,190.55,144.57,190.32Z"/><path class="cls-3" d="M149.85,190.2a.89.89,0,0,1,.5-.19.58.58,0,0,1,.5.12,31.73,31.73,0,0,1,.19,5v5.29l0,10.14L158,200.31q6.9-10.19,7.08-10.3a.81.81,0,0,1,.27,0,.85.85,0,0,1,.54.19.59.59,0,0,1,.23.46.36.36,0,0,1,0,.19q-.15.27-4.44,6.67l-4.33,6.43,4.33,4.33q3.1,3.06,3.73,3.73c.42.45.63.74.63.9a.74.74,0,0,1-.23.57.5.5,0,0,1-.34.19c-.21,0-.57-.24-1.09-.72s-1.72-1.66-3.58-3.53l-4.25-4.25-.58.85s-.38.54-1.07,1.55-1.27,1.88-1.76,2.62c-1.48,2.22-2.33,3.36-2.56,3.41a1.14,1.14,0,0,1-.85-.27V201.84C149.66,194.18,149.73,190.3,149.85,190.2Z"/><path class="cls-3" d="M177.92,190.09a.68.68,0,0,1,.84,0q.15.12,3.94,11.41t3.79,11.64c0,.38-.21.57-.65.57a.82.82,0,0,1-.49-.19,18.4,18.4,0,0,1-1.38-3.71l-1.19-3.53h-8.92l-1.19,3.6a17.16,17.16,0,0,1-1.49,3.76.69.69,0,0,1-.59.05c-.25-.06-.37-.19-.37-.4q0-.62,3.72-11.81T177.92,190.09Zm4.32,14.51s-.09-.29-.26-.79-.44-1.26-.77-2.29-.65-2-1-2.86a57.64,57.64,0,0,0-1.95-5.51l0,0q-.15.65-2,5.93l-1.91,5.67h4A19.9,19.9,0,0,0,182.24,204.6Z"/><path class="cls-3" d="M92.45,189.89a.55.55,0,0,1-.32-.1.6.6,0,0,1-.19-.82l1.73-2.74a.61.61,0,0,1,.83-.19.59.59,0,0,1,.18.82L93,189.61A.59.59,0,0,1,92.45,189.89Z"/></g></g></svg>