<svg xmlns="http://www.w3.org/2000/svg" viewBox="0 0 47.14 70.52"><defs><style>.cls-1{fill:#313133;}</style></defs><g id="Capa_2" data-name="Capa 2"><g id="Capa_3" data-name="Capa 3"><path class="cls-1" d="M45.93,70.1a.77.77,0,0,1-.71.42H42.56a1.35,1.35,0,0,1-1.13-.86L28.09,37.75q-.37-1-2-1L5.63,36.71a1.14,1.14,0,0,0-.9.28,1.14,1.14,0,0,0-.24.76L4.36,69.32c0,.69-.32,1-1,1H.94a.92.92,0,0,1-.75-.24A.91.91,0,0,1,0,69.49L.27.94C.28.31.56,0,1.13,0L25.59.1Q35.84.15,41.5,4.52t5.64,13.11a18.42,18.42,0,0,1-2.27,9.52,16.48,16.48,0,0,1-5.57,5.76,24.18,24.18,0,0,1-6.65,2.86c-.38.06-.5.28-.38.66L46,69.2A1,1,0,0,1,45.93,70.1ZM37.42,29.63q5.13-3.39,5.16-11.36,0-7.29-4.22-10.82T25.48,3.89L5.67,3.81q-1.05,0-1,.75l-.11,27.5c0,.57.22.85.66.85l17,.07Q32.28,33,37.42,29.63Z"/></g></g></svg>