<svg xmlns="http://www.w3.org/2000/svg" viewBox="0 0 252 252"><defs><style>.cls-1{fill:#eb9f00;}.cls-2{fill:#fff;}</style></defs><g id="Capa_2" data-name="Capa 2"><g id="Capa_3" data-name="Capa 3"><rect class="cls-1" x="7" y="7" width="238" height="238"/><path class="cls-2" d="M238,14V238H14V14H238M252,0H0V252H252V0Z"/><path class="cls-2" d="M126,173.88a11.84,11.84,0,0,1-6-1.64L95.15,157.62a15,15,0,0,1-7.34-13l.51-53.3a12,12,0,0,1,6.77-10.65l26.38-14.94a9.59,9.59,0,0,1,9.57.08l27.82,16.44A8.39,8.39,0,0,1,163,89.67l-.71,30.93a10.83,10.83,0,0,1-5.44,9.11l-6.78,3.86,14,7.54a2.11,2.11,0,1,1-2,3.71L145.74,136l-17.4,9.89a4.72,4.72,0,0,1-4.58.06l-7-3.77a4.75,4.75,0,0,1-2.49-4.15l0-8.51a4.7,4.7,0,0,1,2.45-4.16l6.75-3.7a4.74,4.74,0,0,1,4.52,0l17.7,9.54,9.06-5.16a6.57,6.57,0,0,0,3.32-5.55l.71-30.92a4.18,4.18,0,0,0-2.05-3.7L128.9,69.45a5.35,5.35,0,0,0-5.35,0l-26.45,15-.14.07a7.77,7.77,0,0,0-4.43,6.92L92,144.67A10.71,10.71,0,0,0,97.28,154l24.82,14.62a7.62,7.62,0,0,0,7.64.06l49.34-27.73a7.63,7.63,0,0,0,3.84-6.57V77.86a7.65,7.65,0,0,0-3.76-6.64L130.51,42.73a7.63,7.63,0,0,0-7.62,0L73.5,70.5a7.63,7.63,0,0,0-3.84,6.57v62.05a2.11,2.11,0,1,1-4.21,0V77.06a11.83,11.83,0,0,1,6-10.22L120.82,39a11.85,11.85,0,0,1,11.82.08l48.64,28.49a11.88,11.88,0,0,1,5.86,10.28v56.51a11.87,11.87,0,0,1-6,10.22l-49.35,27.74A11.85,11.85,0,0,1,126,173.88Zm-.25-48.56a.5.5,0,0,0-.24.06l-6.76,3.7a.51.51,0,0,0-.26.45l0,8.52a.52.52,0,0,0,.27.45l7,3.77a.52.52,0,0,0,.5,0l15.1-8.59L126,125.38A.54.54,0,0,0,125.73,125.32Z"/><path class="cls-2" d="M64.84,190.2l.46-.46h4a33.92,33.92,0,0,1,4.67.16,4.57,4.57,0,0,1,2.53,1.6,4.31,4.31,0,0,1,.92,2.68,4.18,4.18,0,0,1-1.23,3l-.46.5a7.3,7.3,0,0,1,3.12,2,8.54,8.54,0,0,1,1.93,3.36l.31.91,0,4.52v2.38a8.55,8.55,0,0,1-.15,2.37.68.68,0,0,1-.5.19h-.15q-.39,0-.45-.63c0-.42-.08-1.76-.13-4s0-3.56-.08-4a5,5,0,0,0-.23-1.29,6.89,6.89,0,0,0-4.59-4.63,26.25,26.25,0,0,0-4.59-.27l-4,0v7.27c0,3.57,0,5.69-.05,6.34s-.07,1-.18,1.09a.74.74,0,0,1-1-.08,4.18,4.18,0,0,1-.17-1.63c0-1,0-4.3,0-10ZM74,191.39a21.8,21.8,0,0,0-4.1-.19h-3.6v6h3.6a37.54,37.54,0,0,0,3.83-.11,2.55,2.55,0,0,0,1.34-.77,2.93,2.93,0,0,0,1-2.11,2.83,2.83,0,0,0-.63-1.66A3,3,0,0,0,74,191.39Z"/><path class="cls-2" d="M85.36,189.9a.79.79,0,0,1,.88.07c.1.08.16.48.17,1.21s0,3.12.06,7.18l.08,8.23.26.73a7.43,7.43,0,0,0,1.77,2.79,6.32,6.32,0,0,0,4.63,1.95,6.2,6.2,0,0,0,4-1.39,7.38,7.38,0,0,0,2.41-3.47l.23-.73,0-8.15c0-5.34.08-8.08.15-8.23s0-.05.08-.08a.78.78,0,0,1,.5-.15.75.75,0,0,1,.49.15,22.75,22.75,0,0,1,.16,4.25v4.33l0,8.38-.31.81a8.29,8.29,0,0,1-5.51,5.36,7,7,0,0,1-2.22.3,7.14,7.14,0,0,1-2.26-.3,8.51,8.51,0,0,1-4-2.66,8.16,8.16,0,0,1-1.8-4.43c-.08-.53-.11-3.29-.11-8.27q0-5.58,0-6.66C85.08,190.41,85.18,190,85.36,189.9Z"/><path class="cls-2" d="M105.65,189.9h.08l.19,0a1.14,1.14,0,0,1,.27,0h.8c.23,0,.68,0,1.34,0l1.61,0a31.29,31.29,0,0,1,4.63.19,4.6,4.6,0,0,1,2.68,2.64,3.92,3.92,0,0,1,.42,1.57,4.26,4.26,0,0,1-1.26,3.06c-.36.36-.47.54-.34.54a5.2,5.2,0,0,1,1,.42,7.79,7.79,0,0,1,4.06,5,8.13,8.13,0,0,1,.27,2.22,7,7,0,0,1-.27,2.22,8.23,8.23,0,0,1-4.17,5,6.69,6.69,0,0,1-2.22.77c-.64.08-2.2.13-4.67.15l-2.17,0-1.32,0-.44,0-.28,0a.43.43,0,0,1-.22-.06l-.13-.07a.53.53,0,0,1-.15-.12,1.72,1.72,0,0,1-.19-.17V201.76q0-11.47.19-11.63A1.05,1.05,0,0,1,105.65,189.9Zm8.77,1.68a20.27,20.27,0,0,0-4.21-.27l-3.72,0v6.09h3.68l3.68,0,.57-.26a2.86,2.86,0,0,0,1.8-2.76A2.78,2.78,0,0,0,114.42,191.58Zm.57,7.47a22.64,22.64,0,0,0-4.63-.31l-3.87,0v13.52l4,0a28.71,28.71,0,0,0,4.63-.23,6.78,6.78,0,0,0,3.33-2.26,6.64,6.64,0,0,0,1.53-4.17,6.36,6.36,0,0,0-2-4.67A6.89,6.89,0,0,0,115,199.05Z"/><path class="cls-2" d="M125.22,190.2l.46-.46h4a34,34,0,0,1,4.67.16,4.51,4.51,0,0,1,2.52,1.6,4.37,4.37,0,0,1-.3,5.71l-.46.5a7.3,7.3,0,0,1,3.12,2,8.66,8.66,0,0,1,1.93,3.36l.31.91,0,4.52v2.38a7.9,7.9,0,0,1-.16,2.37.64.64,0,0,1-.49.19h-.16c-.25,0-.4-.21-.44-.63s-.08-1.76-.13-4-.05-3.56-.08-4a5,5,0,0,0-.23-1.29,6.89,6.89,0,0,0-4.59-4.63,26.4,26.4,0,0,0-4.6-.27l-4,0v7.27c0,3.57,0,5.69-.06,6.34s-.07,1-.17,1.09a.74.74,0,0,1-1-.08,4.18,4.18,0,0,1-.17-1.63c0-1,0-4.3,0-10Zm9.15,1.19a21.88,21.88,0,0,0-4.1-.19h-3.6v6h3.6a37.68,37.68,0,0,0,3.83-.11,2.58,2.58,0,0,0,1.34-.77,2.93,2.93,0,0,0,1-2.11,2.78,2.78,0,0,0-.64-1.66A3,3,0,0,0,134.37,191.39Z"/><path class="cls-2" d="M145.58,190.32a.81.81,0,0,1,.48-.18.92.92,0,0,1,.56.14,60.54,60.54,0,0,1,.19,6.74v4.78c0,1.23,0,2.66,0,4.31s0,2.7,0,3.16a29.09,29.09,0,0,1-.12,4.13c-.07.21-.29.31-.65.31a.71.71,0,0,1-.5-.15,4.39,4.39,0,0,1-.17-1.67q0-1.51,0-9.93C145.39,194.35,145.46,190.47,145.58,190.32Z"/><path class="cls-2" d="M150.87,190.2a.86.86,0,0,1,.5-.19.56.56,0,0,1,.49.12,31.73,31.73,0,0,1,.19,5v5.29l0,10.14L159,200.31q6.9-10.19,7.09-10.3a.76.76,0,0,1,.27,0,.84.84,0,0,1,.53.19.59.59,0,0,1,.23.46.36.36,0,0,1,0,.19q-.15.27-4.44,6.67l-4.32,6.43,4.32,4.33c2.07,2,3.31,3.28,3.74,3.73s.63.74.63.9a.78.78,0,0,1-.23.57.53.53,0,0,1-.35.19c-.2,0-.57-.24-1.09-.72s-1.72-1.66-3.58-3.53l-4.25-4.25-.57.85s-.39.54-1.08,1.55-1.27,1.88-1.76,2.62c-1.48,2.22-2.33,3.36-2.56,3.41a1.12,1.12,0,0,1-.84-.27V201.84Q150.68,190.35,150.87,190.2Z"/><path class="cls-2" d="M178.93,190.09a.68.68,0,0,1,.84,0q.16.12,3.95,11.41t3.79,11.64c0,.38-.22.57-.65.57a.85.85,0,0,1-.5-.19,20,20,0,0,1-1.38-3.71l-1.19-3.53h-8.92l-1.18,3.6a17.44,17.44,0,0,1-1.5,3.76.69.69,0,0,1-.59.05c-.24-.06-.36-.19-.36-.4q0-.62,3.71-11.81T178.93,190.09Zm4.33,14.51s-.09-.29-.27-.79-.43-1.26-.77-2.29-.65-2-.95-2.86q-1.85-5.5-2-5.51l0,0q-.17.65-2,5.93l-1.92,5.67h4A20.17,20.17,0,0,0,183.26,204.6Z"/><path class="cls-2" d="M93.46,189.89a.55.55,0,0,1-.32-.1A.59.59,0,0,1,93,189l1.73-2.74a.6.6,0,0,1,1,.63L94,189.61A.58.58,0,0,1,93.46,189.89Z"/></g></g></svg>